<?xml version="1.0" standalone="no"?>
<!DOCTYPE svg PUBLIC "-//W3C//DTD SVG 20010904//EN"
 "http://www.w3.org/TR/2001/REC-SVG-20010904/DTD/svg10.dtd">
<svg version="1.0" xmlns="http://www.w3.org/2000/svg"
 width="225.000000pt" height="225.000000pt" viewBox="0 0 225.000000 225.000000"
 preserveAspectRatio="xMidYMid meet">
<metadata>
Created by potrace 1.14, written by Peter Selinger 2001-2017
</metadata>
<g transform="translate(0.000000,225.000000) scale(0.100000,-0.100000)"
fill="#000000" stroke="none">
<path d="M0 1125 l0 -1125 1125 0 1125 0 0 1125 0 1125 -1125 0 -1125 0 0
-1125z m1898 273 c-3 -33 -4 -33 -60 -36 -46 -2 -61 -7 -73 -25 -8 -12 -15
-25 -15 -29 0 -5 34 -8 75 -8 l75 0 0 -30 0 -30 -75 0 -75 0 0 -145 0 -145
-40 0 -40 0 0 145 0 145 -30 0 c-27 0 -30 3 -30 30 0 26 4 30 28 30 23 0 30 6
40 34 7 19 29 48 48 65 32 28 41 31 105 31 l70 0 -3 -32z m132 -3 c0 -33 -2
-35 -35 -35 -33 0 -35 2 -35 35 0 33 2 35 35 35 33 0 35 -2 35 -35z m-1220
-107 c51 -27 77 -71 82 -138 l3 -45 -123 -3 c-106 -2 -122 -5 -122 -19 0 -9
10 -27 22 -40 19 -21 30 -23 115 -23 l93 0 0 -35 0 -35 -111 0 -112 0 -43 44
c-44 43 -44 44 -44 114 0 78 11 115 43 151 50 54 126 65 197 29z m-485 -75
c14 -49 34 -112 43 -140 8 -29 19 -53 22 -53 4 0 12 19 19 43 7 23 26 86 43
140 l30 97 39 0 c21 0 39 -3 39 -7 0 -5 -24 -82 -54 -173 l-53 -165 -63 0 -64
0 -53 165 c-29 91 -53 168 -53 173 0 4 17 7 39 7 l39 0 27 -87z m865 52 l0
-35 -60 0 c-51 0 -65 -4 -85 -25 -24 -23 -25 -30 -25 -140 l0 -115 -35 0 -35
0 0 134 0 133 45 42 c44 40 46 41 120 41 l75 0 0 -35z m163 -97 l44 -133 44
133 43 132 38 0 c21 0 38 -4 38 -9 0 -5 -30 -96 -67 -203 -57 -165 -72 -198
-104 -230 -36 -37 -39 -38 -108 -38 l-72 0 3 33 c3 31 4 32 62 37 40 3 62 10
69 22 10 14 -30 149 -111 376 -3 8 8 12 36 12 l40 0 45 -132z m677 -43 l0
-175 -35 0 -35 0 0 175 0 175 35 0 35 0 0 -175z"/>
<path d="M693 1230 c-21 -9 -43 -38 -43 -59 0 -7 32 -11 85 -11 47 0 85 2 85
5 0 18 -26 55 -47 64 -28 13 -50 13 -80 1z"/>
</g>
</svg>
